<svg width="76" height="44" viewBox="0 0 76 44" fill="none"
    xmlns="http://www.w3.org/2000/svg">
    <path d="M1.01136 15V3.36364H5.67045C6.52652 3.36364 7.24053 3.49053 7.8125 3.74432C8.38447 3.99811 8.81439 4.35038 9.10227 4.80114C9.39015 5.24811 9.53409 5.76326 9.53409 6.34659C9.53409 6.80114 9.44318 7.20076 9.26136 7.54545C9.07955 7.88636 8.82955 8.16667 8.51136 8.38636C8.19697 8.60227 7.83712 8.75568 7.43182 8.84659V8.96023C7.875 8.97917 8.28977 9.10417 8.67614 9.33523C9.06629 9.56629 9.38258 9.89015 9.625 10.3068C9.86742 10.7197 9.98864 11.2121 9.98864 11.7841C9.98864 12.4015 9.83523 12.9527 9.52841 13.4375C9.22538 13.9186 8.77652 14.2992 8.18182 14.5795C7.58712 14.8598 6.85417 15 5.98295 15H1.01136ZM3.47159 12.9886H5.47727C6.16288 12.9886 6.66288 12.858 6.97727 12.5966C7.29167 12.3314 7.44886 11.9792 7.44886 11.5398C7.44886 11.2178 7.37121 10.9337 7.21591 10.6875C7.06061 10.4413 6.83902 10.2481 6.55114 10.108C6.26705 9.9678 5.92803 9.89773 5.53409 9.89773H3.47159V12.9886ZM3.47159 8.23295H5.29545C5.63258 8.23295 5.93182 8.17424 6.19318 8.05682C6.45833 7.93561 6.66667 7.76515 6.81818 7.54545C6.97348 7.32576 7.05114 7.0625 7.05114 6.75568C7.05114 6.33523 6.90152 5.99621 6.60227 5.73864C6.30682 5.48106 5.88636 5.35227 5.34091 5.35227H3.47159V8.23295ZM11.5895 15V3.36364H14.0497V12.9716H19.0384V15H11.5895ZM30.9077 9.18182C30.9077 10.4508 30.6671 11.5303 30.1861 12.4205C29.7088 13.3106 29.0573 13.9905 28.2315 14.4602C27.4096 14.9261 26.4853 15.1591 25.4588 15.1591C24.4247 15.1591 23.4967 14.9242 22.6747 14.4545C21.8527 13.9848 21.2031 13.3049 20.7259 12.4148C20.2486 11.5246 20.0099 10.447 20.0099 9.18182C20.0099 7.91288 20.2486 6.83333 20.7259 5.94318C21.2031 5.05303 21.8527 4.375 22.6747 3.90909C23.4967 3.43939 24.4247 3.20455 25.4588 3.20455C26.4853 3.20455 27.4096 3.43939 28.2315 3.90909C29.0573 4.375 29.7088 5.05303 30.1861 5.94318C30.6671 6.83333 30.9077 7.91288 30.9077 9.18182ZM28.4134 9.18182C28.4134 8.35985 28.2902 7.66667 28.044 7.10227C27.8016 6.53788 27.4588 6.10985 27.0156 5.81818C26.5724 5.52652 26.0535 5.38068 25.4588 5.38068C24.8641 5.38068 24.3452 5.52652 23.902 5.81818C23.4588 6.10985 23.1141 6.53788 22.8679 7.10227C22.6255 7.66667 22.5043 8.35985 22.5043 9.18182C22.5043 10.0038 22.6255 10.697 22.8679 11.2614C23.1141 11.8258 23.4588 12.2538 23.902 12.5455C24.3452 12.8371 24.8641 12.983 25.4588 12.983C26.0535 12.983 26.5724 12.8371 27.0156 12.5455C27.4588 12.2538 27.8016 11.8258 28.044 11.2614C28.2902 10.697 28.4134 10.0038 28.4134 9.18182ZM43.4233 9.18182C43.4233 10.4508 43.1828 11.5303 42.7017 12.4205C42.2244 13.3106 41.5729 13.9905 40.7472 14.4602C39.9252 14.9261 39.0009 15.1591 37.9744 15.1591C36.9403 15.1591 36.0123 14.9242 35.1903 14.4545C34.3684 13.9848 33.7188 13.3049 33.2415 12.4148C32.7642 11.5246 32.5256 10.447 32.5256 9.18182C32.5256 7.91288 32.7642 6.83333 33.2415 5.94318C33.7188 5.05303 34.3684 4.375 35.1903 3.90909C36.0123 3.43939 36.9403 3.20455 37.9744 3.20455C39.0009 3.20455 39.9252 3.43939 40.7472 3.90909C41.5729 4.375 42.2244 5.05303 42.7017 5.94318C43.1828 6.83333 43.4233 7.91288 43.4233 9.18182ZM40.929 9.18182C40.929 8.35985 40.8059 7.66667 40.5597 7.10227C40.3172 6.53788 39.9744 6.10985 39.5312 5.81818C39.0881 5.52652 38.5691 5.38068 37.9744 5.38068C37.3797 5.38068 36.8608 5.52652 36.4176 5.81818C35.9744 6.10985 35.6297 6.53788 35.3835 7.10227C35.1411 7.66667 35.0199 8.35985 35.0199 9.18182C35.0199 10.0038 35.1411 10.697 35.3835 11.2614C35.6297 11.8258 35.9744 12.2538 36.4176 12.5455C36.8608 12.8371 37.3797 12.983 37.9744 12.983C38.5691 12.983 39.0881 12.8371 39.5312 12.5455C39.9744 12.2538 40.3172 11.8258 40.5597 11.2614C40.8059 10.697 40.929 10.0038 40.929 9.18182ZM45.2457 3.36364H48.2798L51.4844 11.1818H51.6207L54.8253 3.36364H57.8594V15H55.473V7.42614H55.3764L52.3651 14.9432H50.7401L47.7287 7.39773H47.6321V15H45.2457V3.36364Z" fill="#13693B"/>
    <path d="M7.77273 31.2727C7.70455 30.697 7.42803 30.25 6.94318 29.9318C6.45833 29.6136 5.86364 29.4545 5.15909 29.4545C4.64394 29.4545 4.19318 29.5379 3.80682 29.7045C3.42424 29.8712 3.125 30.1004 2.90909 30.392C2.69697 30.6837 2.59091 31.0152 2.59091 31.3864C2.59091 31.697 2.66477 31.964 2.8125 32.1875C2.96402 32.4072 3.1572 32.5909 3.39205 32.7386C3.62689 32.8826 3.87311 33.0019 4.13068 33.0966C4.38826 33.1875 4.625 33.2614 4.84091 33.3182L6.02273 33.6364C6.32576 33.7159 6.66288 33.8258 7.03409 33.9659C7.40909 34.1061 7.76705 34.2973 8.10795 34.5398C8.45265 34.7784 8.73674 35.0852 8.96023 35.4602C9.18371 35.8352 9.29545 36.2955 9.29545 36.8409C9.29545 37.4697 9.13068 38.0379 8.80114 38.5455C8.47538 39.053 7.99811 39.4564 7.36932 39.7557C6.74432 40.0549 5.98485 40.2045 5.09091 40.2045C4.25758 40.2045 3.53598 40.0701 2.92614 39.8011C2.32008 39.5322 1.8428 39.1572 1.49432 38.6761C1.14962 38.1951 0.954545 37.6364 0.909091 37H2.36364C2.40152 37.4394 2.54924 37.803 2.80682 38.0909C3.06818 38.375 3.39773 38.5871 3.79545 38.7273C4.19697 38.8636 4.62879 38.9318 5.09091 38.9318C5.62879 38.9318 6.11174 38.8447 6.53977 38.6705C6.9678 38.4924 7.30682 38.2462 7.55682 37.9318C7.80682 37.6136 7.93182 37.2424 7.93182 36.8182C7.93182 36.4318 7.82386 36.1174 7.60795 35.875C7.39205 35.6326 7.10795 35.4356 6.75568 35.2841C6.40341 35.1326 6.02273 35 5.61364 34.8864L4.18182 34.4773C3.27273 34.2159 2.55303 33.8428 2.02273 33.358C1.49242 32.8731 1.22727 32.2386 1.22727 31.4545C1.22727 30.803 1.40341 30.2348 1.75568 29.75C2.11174 29.2614 2.58902 28.8826 3.1875 28.6136C3.78977 28.3409 4.46212 28.2045 5.20455 28.2045C5.95455 28.2045 6.62121 28.339 7.20455 28.608C7.78788 28.8731 8.25 29.2367 8.59091 29.6989C8.93561 30.161 9.11742 30.6856 9.13636 31.2727H7.77273ZM10.9759 29.6136V28.3636H19.7031V29.6136H16.044V40H14.6349V29.6136H10.9759ZM29.5142 28.3636H30.9233V36.0682C30.9233 36.8636 30.7358 37.5739 30.3608 38.1989C29.9896 38.8201 29.465 39.3106 28.7869 39.6705C28.1089 40.0265 27.3134 40.2045 26.4006 40.2045C25.4877 40.2045 24.6922 40.0265 24.0142 39.6705C23.3362 39.3106 22.8097 38.8201 22.4347 38.1989C22.0634 37.5739 21.8778 36.8636 21.8778 36.0682V28.3636H23.2869V35.9545C23.2869 36.5227 23.4119 37.0284 23.6619 37.4716C23.9119 37.911 24.268 38.2576 24.7301 38.5114C25.196 38.7614 25.7528 38.8864 26.4006 38.8864C27.0483 38.8864 27.6051 38.7614 28.071 38.5114C28.5369 38.2576 28.893 37.911 29.1392 37.4716C29.3892 37.0284 29.5142 36.5227 29.5142 35.9545V28.3636ZM37.3281 40H33.7372V28.3636H37.4872C38.616 28.3636 39.5819 28.5966 40.3849 29.0625C41.188 29.5246 41.8035 30.1894 42.2315 31.0568C42.6596 31.9205 42.8736 32.9545 42.8736 34.1591C42.8736 35.3712 42.6577 36.4148 42.2259 37.2898C41.794 38.161 41.1652 38.8314 40.3395 39.3011C39.5137 39.767 38.5099 40 37.3281 40ZM35.1463 38.75H37.2372C38.1993 38.75 38.9967 38.5644 39.6293 38.1932C40.2618 37.822 40.7334 37.2936 41.044 36.608C41.3546 35.9223 41.5099 35.1061 41.5099 34.1591C41.5099 33.2197 41.3565 32.411 41.0497 31.733C40.7429 31.0511 40.2846 30.5284 39.6747 30.1648C39.0649 29.7973 38.3054 29.6136 37.3963 29.6136H35.1463V38.75ZM45.2372 40V28.3636H52.2599V29.6136H46.6463V33.5455H51.8963V34.7955H46.6463V38.75H52.3509V40H45.2372ZM64.027 28.3636V40H62.6634L56.3224 30.8636H56.2088V40H54.7997V28.3636H56.1634L62.527 37.5227H62.6406V28.3636H64.027ZM66.2102 29.6136V28.3636H74.9375V29.6136H71.2784V40H69.8693V29.6136H66.2102Z" fill="#13693B"/>
    <mask id="mask0_11_84" style="mask-type:alpha" maskUnits="userSpaceOnUse" x="23" y="7" width="18" height="18">
        <path fill-rule="evenodd" clip-rule="evenodd" d="M32 10C28.6863 10 26 12.6863 26 16C26 19.3137 28.6863 22 32 22C35.3137 22 38 19.3137 38 16C38 12.6863 35.3137 9.99999 32 10ZM32 7C27.0294 7 23 11.0294 23 16C23 20.9706 27.0294 25 32 25C36.9706 25 41 20.9706 41 16C41 11.0294 36.9706 6.99999 32 7Z" fill="#13693B"/>
    </mask>
    <g mask="url(#mask0_11_84)">
        <path d="M41 25L23 25L23 16.4737L41 16.4737L41 25Z" fill="#13693B"/>
    </g>
</svg>
