<svg width="123" height="115" viewBox="0 0 123 115" fill="none" xmlns="http://www.w3.org/2000/svg">
<path d="M122.92 31.3807C122.92 38.0426 121.658 43.7102 119.132 48.3835C116.626 53.0568 113.206 56.6264 108.871 59.0923C104.555 61.5384 99.703 62.7614 94.3138 62.7614C88.8848 62.7614 84.0127 61.5284 79.6973 59.0625C75.382 56.5966 71.9715 53.027 69.4658 48.3537C66.9601 43.6804 65.7073 38.0227 65.7073 31.3807C65.7073 24.7188 66.9601 19.0511 69.4658 14.3778C71.9715 9.70455 75.382 6.14489 79.6973 3.69887C84.0127 1.23296 88.8848 0 94.3138 0C99.703 0 104.555 1.23296 108.871 3.69887C113.206 6.14489 116.626 9.70455 119.132 14.3778C121.658 19.0511 122.92 24.7188 122.92 31.3807ZM109.825 31.3807C109.825 27.0653 109.179 23.4261 107.886 20.4631C106.614 17.5 104.814 15.2528 102.487 13.7216C100.16 12.1903 97.436 11.4247 94.3138 11.4247C91.1917 11.4247 88.4672 12.1903 86.1405 13.7216C83.8138 15.2528 82.0041 17.5 80.7115 20.4631C79.4388 23.4261 78.8024 27.0653 78.8024 31.3807C78.8024 35.696 79.4388 39.3352 80.7115 42.2983C82.0041 45.2614 83.8138 47.5085 86.1405 49.0398C88.4672 50.571 91.1917 51.3366 94.3138 51.3366C97.436 51.3366 100.16 50.571 102.487 49.0398C104.814 47.5085 106.614 45.2614 107.886 42.2983C109.179 39.3352 109.825 35.696 109.825 31.3807Z" fill="#222222"/>
<path d="M57.2131 31.3807C57.2131 38.0426 55.9503 43.7102 53.4247 48.3835C50.919 53.0568 47.4986 56.6264 43.1634 59.0923C38.848 61.5384 33.9957 62.7614 28.6065 62.7614C23.1776 62.7614 18.3054 61.5284 13.9901 59.0625C9.67472 56.5966 6.26421 53.027 3.75852 48.3537C1.25284 43.6804 0 38.0227 0 31.3807C0 24.7188 1.25284 19.0511 3.75852 14.3778C6.26421 9.70455 9.67472 6.14489 13.9901 3.69887C18.3054 1.23296 23.1776 0 28.6065 0C33.9957 0 38.848 1.23296 43.1634 3.69887C47.4986 6.14489 50.919 9.70455 53.4247 14.3778C55.9503 19.0511 57.2131 24.7188 57.2131 31.3807ZM44.1179 31.3807C44.1179 27.0653 43.4716 23.4261 42.179 20.4631C40.9063 17.5 39.1065 15.2528 36.7798 13.7216C34.4531 12.1903 31.7287 11.4247 28.6065 11.4247C25.4844 11.4247 22.7599 12.1903 20.4332 13.7216C18.1065 15.2528 16.2969 17.5 15.0043 20.4631C13.7315 23.4261 13.0952 27.0653 13.0952 31.3807C13.0952 35.696 13.7315 39.3352 15.0043 42.2983C16.2969 45.2614 18.1065 47.5085 20.4332 49.0398C22.7599 50.571 25.4844 51.3366 28.6065 51.3366C31.7287 51.3366 34.4531 50.571 36.7798 49.0398C39.1065 47.5085 40.9063 45.2614 42.179 42.2983C43.4716 39.3352 44.1179 35.696 44.1179 31.3807Z" fill="#222222"/>
<mask id="mask0_222_2" style="mask-type:alpha" maskUnits="userSpaceOnUse" x="15" y="19" width="96" height="96">
<path fill-rule="evenodd" clip-rule="evenodd" d="M63.0002 35.6761C45.6032 35.6761 31.5002 49.7792 31.5002 67.1761C31.5002 84.5731 45.6032 98.6762 63.0002 98.6762C80.3972 98.6762 94.5002 84.5731 94.5002 67.1761C94.5002 49.7792 80.3972 35.6761 63.0002 35.6761ZM63.0002 19.9261C36.9048 19.9261 15.7502 41.0807 15.7502 67.1761C15.7502 93.2716 36.9048 114.426 63.0002 114.426C89.0957 114.426 110.25 93.2716 110.25 67.1761C110.25 41.0807 89.0957 19.9261 63.0002 19.9261Z" fill="#13693B"/>
</mask>
<g mask="url(#mask0_222_2)">
<path d="M110.25 114.426L15.7502 114.426L15.7502 69.663L110.25 69.663L110.25 114.426Z" fill="#222222"/>
</g>
</svg>
